<svg width="225" height="36" viewBox="0 0 225 36" fill="none" xmlns="http://www.w3.org/2000/svg">
<g clip-path="url(#clip0_163_162)">
<path d="M1.824 31V8.6H9.376V25.144H19.488V31H1.824ZM33.0055 31.512C25.7095 31.512 20.3655 26.584 20.3655 19.8C20.3655 13.016 25.7095 8.088 33.0055 8.088C40.3015 8.088 45.6455 13.016 45.6455 19.8C45.6455 26.584 40.3015 31.512 33.0055 31.512ZM33.0055 25.4C35.7895 25.4 38.0295 23.288 38.0295 19.8C38.0295 16.312 35.7895 14.2 33.0055 14.2C30.2215 14.2 27.9815 16.312 27.9815 19.8C27.9815 23.288 30.2215 25.4 33.0055 25.4ZM63.2025 24.856V19.192H69.7625V28.664C67.0425 30.52 63.2985 31.512 60.0025 31.512C52.7705 31.512 47.4905 26.68 47.4905 19.8C47.4905 12.92 52.7705 8.088 60.1625 8.088C64.5785 8.088 68.1305 9.624 70.4025 12.408L65.5705 16.664C64.1625 15.032 62.5305 14.2 60.5465 14.2C57.2185 14.2 55.1065 16.344 55.1065 19.8C55.1065 23.16 57.2185 25.4 60.4505 25.4C61.3785 25.4 62.2745 25.24 63.2025 24.856ZM89.7483 31L88.2443 27.096H79.7323L78.2283 31H70.5482L80.3403 8.6H87.7643L97.5563 31H89.7483ZM81.8123 21.656H86.1643L83.9883 16.024L81.8123 21.656ZM113.482 8.6H120.842V31H114.634L106.122 20.824V31H98.7615V8.6H104.97L113.482 18.776V8.6ZM144.858 8.6C151.098 8.6 155.066 11.864 155.066 17.048C155.066 22.232 151.098 25.496 144.858 25.496H141.626V31H134.074V8.6H144.858ZM144.378 19.672C146.458 19.672 147.45 18.68 147.45 17.048C147.45 15.416 146.458 14.424 144.378 14.424H141.626V19.672H144.378ZM173.186 31L171.682 27.096H163.17L161.666 31H153.986L163.778 8.6H171.202L180.994 31H173.186ZM165.25 21.656H169.602L167.426 16.024L165.25 21.656ZM192.45 31.512C185.57 31.512 181.538 27.64 181.538 20.92V8.6H189.09V20.696C189.09 24.12 190.402 25.4 192.514 25.4C194.626 25.4 195.938 24.12 195.938 20.696V8.6H203.362V20.92C203.362 27.64 199.33 31.512 192.45 31.512ZM206.824 31V8.6H214.376V25.144H224.488V31H206.824Z" fill="white"/>
</g>
<defs>
<clipPath id="clip0_163_162">
<rect width="225" height="36" fill="white"/>
</clipPath>
</defs>
</svg>
